# xmcd CD database file
#
# Track frame offsets:
#	150
#	21970
#	60610
#	84242
#	103198
#	128046
#	168122
#	186950
#	201750
#	224298
#	252222
#	273898
#	288866
#
# Disc length: 4144 seconds
#
# Revision: 0
# Processed by: cddbd v1.5.2PL0 Copyright (c) Steve Scherf et al.
# Submitted via: CDex 1.51
#
DISCID=b2102e0d
DTITLE=Uwe Kropinski - So Wie So
DYEAR=2012
DGENRE=Jazz
TTITLE0=funky train
TTITLE1=paco
TTITLE2=drei seelen eine brust
TTITLE3=grüne insel
TTITLE4=almdudler
TTITLE5=meditation
TTITLE6=romantik
TTITLE7=böse sieben
TTITLE8=herbstwalzer
TTITLE9=long walk
TTITLE10=django
TTITLE11=kleine sekunden
TTITLE12=abend
EXTD=YEAR: 2012
EXTT0=
EXTT1=
EXTT2=
EXTT3=
EXTT4=
EXTT5=
EXTT6=
EXTT7=
EXTT8=
EXTT9=
EXTT10=
EXTT11=
EXTT12=
PLAYORDER=
